<svg xmlns="http://www.w3.org/2000/svg" viewBox="0 0 739.34 542.48"><defs><style>.cls-1{fill:#0f7780;}.cls-2{font-size:107.96px;}.cls-2,.cls-7,.cls-8{fill:#fff;}.cls-2,.cls-7{font-family:ROSKA;}.cls-3{fill:#3d9cae;}.cls-4{fill:#d30271;}.cls-5{fill:#ec0c84;}.cls-6{fill:#f8128f;}.cls-7{font-size:107.98px;}.cls-9{fill:#006f1a;}.cls-10{fill:#42ab49;}</style></defs><g id="Capa_9" data-name="Capa 9"><polygon class="cls-1" points="121.76 202.22 146.05 227.96 702.91 183.84 739.34 150.75 666.48 120.41 180.17 136.96 121.76 202.22"/></g><g id="Capa_7" data-name="Capa 7"><text class="cls-2" transform="matrix(0.94, 0.09, -0.08, 1, 372.68, 276.69)">break</text><polygon class="cls-3" points="100.94 44.12 721.99 0 739.34 150.75 121.76 202.22 100.94 44.12"/><polygon class="cls-4" points="546.78 351.45 546.78 439.69 470.45 391.89 546.78 351.45"/><polygon class="cls-5" points="705.22 304.87 470.45 391.89 470.45 276.69 705.22 304.87"/><polygon class="cls-6" points="697.13 152.9 155.88 199.47 167.44 351.45 705.22 304.87 697.13 152.9"/><text class="cls-7" transform="matrix(0.94, -0.07, 0.07, 1, 294.46, 293.86)">break</text><path class="cls-8" d="M255.55,105.36l51.93-3.84.79,12-51.92,3.84ZM276,110.13l11.82-.87,4.62,70.23-11.81.88Z" transform="translate(-51.28 -26.4)"/><path class="cls-8" d="M321.4,175.34a17.85,17.85,0,0,1-8-7.57,29.64,29.64,0,0,1-3.4-12.68l-.58-8.89a29,29,0,0,1,1.72-12.89,18.18,18.18,0,0,1,6.91-8.6,23.76,23.76,0,0,1,11.56-3.63A23.42,23.42,0,0,1,341.54,123a17.78,17.78,0,0,1,8,7.5A28.75,28.75,0,0,1,352.91,143l.6,9A29.1,29.1,0,0,1,351.79,165a18.35,18.35,0,0,1-6.91,8.63,23.57,23.57,0,0,1-11.56,3.66A23.31,23.31,0,0,1,321.4,175.34Zm18.23-13.69c1.58-2.14,2.26-5.05,2-8.74l-.6-9q-.36-5.46-3.14-8.28a9,9,0,0,0-7.49-2.45,9.23,9.23,0,0,0-7.11,3.53c-1.58,2.13-2.26,5-2,8.66l.6,9.05c.24,3.69,1.28,6.47,3.12,8.36s4.34,2.72,7.52,2.49A9.16,9.16,0,0,0,339.63,161.65Zm-17.47-54.72,13-19.72L344,94.06l-14,18.79Z" transform="translate(-51.28 -26.4)"/><path class="cls-8" d="M364.82,119.27l11.87-.88L380.28,173l-11.86.88Zm31.9,20q-.35-5.31-3-8a8.64,8.64,0,0,0-7.17-2.35,8.94,8.94,0,0,0-6.58,3c-1.48,1.79-2.12,4.2-1.92,7.25L376.27,128a19.66,19.66,0,0,1,5.45-8.09,13.81,13.81,0,0,1,8.12-3.27,15.8,15.8,0,0,1,9.46,2,16.38,16.38,0,0,1,6.4,7.43,34.47,34.47,0,0,1,2.83,12.35l2.13,32.35-11.81.88Zm30.38-2.24q-.35-5.31-3-8a8.74,8.74,0,0,0-7.23-2.34,8.38,8.38,0,0,0-6.5,3.25q-2.18,2.94-1.84,8l-3.05-11.4A20.71,20.71,0,0,1,411.3,118a14.54,14.54,0,0,1,8.57-3.54,15.52,15.52,0,0,1,16.21,9.4A33.71,33.71,0,0,1,439,136.15l2.13,32.35-11.86.88Z" transform="translate(-51.28 -26.4)"/><path class="cls-8" d="M457.21,163.9Q452.52,160,452,151.52q-.54-8.1,3.67-12.48t13.13-5l13.81-1,1.34,9.73-14.45,1.07a7.79,7.79,0,0,0-5.18,2,6.23,6.23,0,0,0-1.45,5,5.81,5.81,0,0,0,2.62,4.91q2.38,1.49,7,1.14c3.77-.27,6.55-.92,8.33-1.93a4.37,4.37,0,0,0,2.48-4.31l1.56,7.71a9.3,9.3,0,0,1-2.67,4.53,14.22,14.22,0,0,1-4.92,3,23.07,23.07,0,0,1-6.44,1.35Q461.9,167.76,457.21,163.9ZM482,130.7a9.49,9.49,0,0,0-3-6.92c-1.81-1.55-4.28-2.22-7.39-2a18,18,0,0,0-5.79,1.44,17.69,17.69,0,0,0-5,3.17l-8.36-6.47a20.43,20.43,0,0,1,7.56-6.4,28,28,0,0,1,10.79-2.89,24.28,24.28,0,0,1,11.38,1.57,16.27,16.27,0,0,1,7.58,6.41,22.71,22.71,0,0,1,3.18,10.79l2.31,35.09-11,.81Z" transform="translate(-51.28 -26.4)"/><path class="cls-8" d="M502,109.12l24.22-1.79.73,11-24.23,1.79Zm11.71,50.6c-2.18-2.28-3.43-5.82-3.74-10.59L506.3,92.84,518.17,92l3.59,54.55a5.32,5.32,0,0,0,1,3,2.44,2.44,0,0,0,2.25.92l4.12-.3.8,12-6.36.47Q517,163.15,513.75,159.72Z" transform="translate(-51.28 -26.4)"/><path class="cls-8" d="M551.77,158.26a18.58,18.58,0,0,1-8.45-7.76,29.47,29.47,0,0,1-3.6-13.08l-.41-6.15a33.51,33.51,0,0,1,1.7-14,19.32,19.32,0,0,1,7-9.3,23,23,0,0,1,11.79-3.88,18.26,18.26,0,0,1,11.52,2.66,21.32,21.32,0,0,1,7.82,9.6,46,46,0,0,1,3.51,15.81l.24,3.58-35,2.59-.61-9.21,24-1.77-.09-.58q-.87-5.68-3.61-8.66a8.24,8.24,0,0,0-7-2.66,10.29,10.29,0,0,0-8.06,4.17q-2.7,3.76-2.26,10.29l.45,6.94c.28,4.14,1.54,7.24,3.81,9.31s5.32,3,9.16,2.68a15,15,0,0,0,5.7-1.61,17.64,17.64,0,0,0,4.92-3.66l8.25,7.1a29.1,29.1,0,0,1-8.41,6.68,24.83,24.83,0,0,1-9.72,2.86A25.41,25.41,0,0,1,551.77,158.26Z" transform="translate(-51.28 -26.4)"/><path class="cls-8" d="M631.88,134.4a7.55,7.55,0,0,0,2,5.15,6.13,6.13,0,0,0,4.93,1.52A6.34,6.34,0,0,0,643.5,139a7.14,7.14,0,0,0,1.34-5.18l1,8.18a11.48,11.48,0,0,1-3.15,5.29,9,9,0,0,1-5.81,2.48q-5.88.44-9.36-3.36t-4-11.17L622,111.66l8.31-.62Zm11.4-24.31,8.28-.61,2.52,38.42-8.27.61Z" transform="translate(-51.28 -26.4)"/><path class="cls-8" d="M661.64,108.73l8.31-.61,2.53,38.42-8.31.62ZM684,122.29a7.53,7.53,0,0,0-2.09-5.2,7.34,7.34,0,0,0-9.68.58,7.07,7.07,0,0,0-1.34,5.11l-1.25-7.91a13.9,13.9,0,0,1,3.76-5.71,9.58,9.58,0,0,1,5.74-2.28,10.6,10.6,0,0,1,9.22,3.42c2.3,2.58,3.62,6.35,4,11.34L693.86,145l-8.31.62Z" transform="translate(-51.28 -26.4)"/><path class="cls-9" d="M60.32,555.49l19.09,13.39,359.42-24.71,23.58-20.59S418.61,502,411.87,502H138.94Z" transform="translate(-51.28 -26.4)"/><polygon class="cls-10" points="0 444.16 6.79 529.1 411.14 499.24 403.28 413.79 0 444.16"/><path class="cls-8" d="M124.1,517.8l.36,5.44-28.57,2.11-.36-5.44Zm.54-15.66.35,5.44-28.56,2.11-.36-5.44Zm-21.12-8.39,5-.37-3.89,41.28-5,.37Zm11.89-.88,5-.37-3.88,41.28-5,.37Z" transform="translate(-51.28 -26.4)"/><path class="cls-8" d="M124.78,492.17l27.69-2,.43,6.42-27.7,2.05Zm10.91,2.55,6.31-.46,2.46,37.45-6.3.47Z" transform="translate(-51.28 -26.4)"/><path class="cls-8" d="M161.79,519a5.74,5.74,0,0,0,1.56,3.9A4.72,4.72,0,0,0,167.1,524a4.85,4.85,0,0,0,3.54-1.6,5.38,5.38,0,0,0,1-3.93l.78,6.2a8.65,8.65,0,0,1-2.4,4,6.87,6.87,0,0,1-4.42,1.87,8.32,8.32,0,0,1-7.13-2.54c-1.76-1.92-2.77-4.74-3-8.46l-1.18-17.85,6.33-.47Zm8.69-18.43,6.3-.47,1.92,29.12-6.31.47Z" transform="translate(-51.28 -26.4)"/><path class="cls-8" d="M184.22,487.78l6.3-.47,2.69,40.8-6.31.47ZM189.66,522l11.36-.84a7.12,7.12,0,0,0,4.83-1.84,5.32,5.32,0,0,0,1.34-4.23V515a7,7,0,0,0-.84-3.07,4.3,4.3,0,0,0-2.09-1.83,7.17,7.17,0,0,0-3.33-.45l-12,.89-.41-6.28,12-.89a5.57,5.57,0,0,0,3.91-1.64,5.27,5.27,0,0,0,1.12-4,4.85,4.85,0,0,0-1.71-3.73,6.22,6.22,0,0,0-4.38-1l-11.65.86-.41-6.34,12.25-.91a13.72,13.72,0,0,1,6.41.86A8.88,8.88,0,0,1,210.2,491a12.42,12.42,0,0,1,1.7,5.82,9.76,9.76,0,0,1-.57,4.15,7.88,7.88,0,0,1-2.26,3.25,9.59,9.59,0,0,1-3.87,2,8.84,8.84,0,0,1,4.3,1.39,8.63,8.63,0,0,1,2.89,3.19,11.07,11.07,0,0,1,1.23,4.55v.09a12.18,12.18,0,0,1-1,6,9.57,9.57,0,0,1-3.75,4.15,13.42,13.42,0,0,1-6.09,1.8l-12.71.94Z" transform="translate(-51.28 -26.4)"/><path class="cls-8" d="M219.46,496.9l6.59-.48L228,525.54l-6.59.49Zm14.16,5.37a5.76,5.76,0,0,0-2.17-.22,4.68,4.68,0,0,0-3.59,1.78,6.13,6.13,0,0,0-1,4.26l-1-6.55a10.51,10.51,0,0,1,2.84-4.29,7,7,0,0,1,4.13-1.76,9,9,0,0,1,3.3.34,7,7,0,0,1,2.65,1.51l-3.49,5.92A4.15,4.15,0,0,0,233.62,502.27Z" transform="translate(-51.28 -26.4)"/><path class="cls-8" d="M248.79,522.9a9.87,9.87,0,0,1-4.5-4.13,15.87,15.87,0,0,1-1.93-7l-.21-3.28a17.92,17.92,0,0,1,.9-7.49,10.3,10.3,0,0,1,3.74-4.95,12.35,12.35,0,0,1,6.29-2.08,9.79,9.79,0,0,1,6.15,1.43,11.37,11.37,0,0,1,4.17,5.12,24.52,24.52,0,0,1,1.87,8.43l.13,1.91-18.67,1.38-.32-4.91,12.78-1,0-.31a8.57,8.57,0,0,0-1.93-4.62,4.37,4.37,0,0,0-3.74-1.41,5.45,5.45,0,0,0-4.29,2.22,8.24,8.24,0,0,0-1.21,5.48l.24,3.71a7.09,7.09,0,0,0,2,5,6.22,6.22,0,0,0,4.88,1.42,8,8,0,0,0,3.05-.85,9.46,9.46,0,0,0,2.62-2l4.4,3.79a15.49,15.49,0,0,1-4.49,3.56,13,13,0,0,1-5.18,1.53A13.51,13.51,0,0,1,248.79,522.9Z" transform="translate(-51.28 -26.4)"/><path class="cls-8" d="M274,520.32q-2.5-2.05-2.8-6.6-.29-4.32,2-6.66c1.49-1.56,3.83-2.45,7-2.69l7.36-.54.72,5.19-7.71.57a4.12,4.12,0,0,0-2.76,1.05,3.31,3.31,0,0,0-.77,2.65,3.08,3.08,0,0,0,1.4,2.62,6.23,6.23,0,0,0,3.73.61,11,11,0,0,0,4.45-1,2.34,2.34,0,0,0,1.32-2.3l.83,4.11a5,5,0,0,1-1.42,2.42,7.74,7.74,0,0,1-2.63,1.59,12.87,12.87,0,0,1-3.43.72Q276.48,522.38,274,520.32Zm13.2-17.71a5,5,0,0,0-1.61-3.69,5.24,5.24,0,0,0-3.94-1.06,9.61,9.61,0,0,0-3.09.77,9.44,9.44,0,0,0-2.65,1.69l-4.46-3.45a10.73,10.73,0,0,1,4-3.41,14.78,14.78,0,0,1,5.75-1.54,12.85,12.85,0,0,1,6.07.83,8.67,8.67,0,0,1,4,3.42,12.14,12.14,0,0,1,1.7,5.76l1.23,18.71-5.85.43Z" transform="translate(-51.28 -26.4)"/><path class="cls-8" d="M299.23,479.28l6.33-.47,2.69,40.8-6.33.46Zm4.84,29.81,12.27-19.35,7-.52L304.89,516.7Zm6.09-5.64,4.49-4.17,12,19-7.12.52Z" transform="translate(-51.28 -26.4)"/><path class="cls-8" d="M336.83,516.12a11.29,11.29,0,0,1-5.05-4.84,18.92,18.92,0,0,1-2.16-8.09l-1.71-26,6.33-.47L336,502.92a8.92,8.92,0,0,0,2.36,6,6.88,6.88,0,0,0,5.63,1.78,7.1,7.1,0,0,0,5.39-2.59,9.05,9.05,0,0,0,1.56-6.32l-1.73-26.24,6.33-.46,1.71,26a19,19,0,0,1-1.09,8.32,11.67,11.67,0,0,1-4.38,5.54,14.94,14.94,0,0,1-7.35,2.34A14.65,14.65,0,0,1,336.83,516.12Z" transform="translate(-51.28 -26.4)"/><path class="cls-8" d="M371.1,513.53a12,12,0,0,1-5.08-4.91,18.22,18.22,0,0,1-2.19-8l-.74-11.2a18.72,18.72,0,0,1,1.12-8.23,12.31,12.31,0,0,1,4.39-5.62,13.91,13.91,0,0,1,7.15-2.39,12.66,12.66,0,0,1,6.39,1.1,13,13,0,0,1,5,4.19,18.78,18.78,0,0,1,3,6.81l-6.51.48a9.81,9.81,0,0,0-1.74-3.32,7.17,7.17,0,0,0-2.59-2.08,6.14,6.14,0,0,0-3.11-.56,6.6,6.6,0,0,0-6,4.5,11.18,11.18,0,0,0-.58,4.64l.74,11.2a11,11,0,0,0,1.18,4.5,6.64,6.64,0,0,0,2.67,2.8,6.82,6.82,0,0,0,3.87.75,6.5,6.5,0,0,0,3-1,7.26,7.26,0,0,0,2.3-2.4,9.7,9.7,0,0,0,1.26-3.62l6.51-.48a19.53,19.53,0,0,1-2.12,7.19,13.16,13.16,0,0,1-4.39,4.88,12.6,12.6,0,0,1-6.16,2A13.81,13.81,0,0,1,371.1,513.53Z" transform="translate(-51.28 -26.4)"/><path class="cls-8" d="M391.16,472.48l27.7-2.05.42,6.43-27.7,2.05ZM402.08,475l6.3-.47L410.84,512l-6.3.47Z" transform="translate(-51.28 -26.4)"/></g></svg>